<mxfile host="Electron" agent="Mozilla/5.0 (Windows NT 10.0; Win64; x64) AppleWebKit/537.36 (KHTML, like Gecko) draw.io/27.0.5 Chrome/134.0.6998.205 Electron/35.3.0 Safari/537.36" version="27.0.5">
  <diagram name="Página-1" id="5TKWt-QlOtjvlEe-ERbS">
    <mxGraphModel dx="1501" dy="936" grid="1" gridSize="10" guides="1" tooltips="1" connect="1" arrows="1" fold="1" page="1" pageScale="1" pageWidth="827" pageHeight="1169" math="0" shadow="0">
      <root>
        <mxCell id="0" />
        <mxCell id="1" parent="0" />
        <mxCell id="Kp7O1pfPNa1nEwttcqdK-1" value="Fluxograma Problema" style="swimlane;html=1;childLayout=stackLayout;horizontal=1;startSize=20;horizontalStack=0;rounded=0;shadow=0;labelBackgroundColor=none;strokeWidth=1;fontFamily=Verdana;fontSize=8;align=center;" vertex="1" parent="1">
          <mxGeometry x="170" y="130" width="1400" height="470" as="geometry">
            <mxRectangle x="180" y="70" width="60" height="20" as="alternateBounds" />
          </mxGeometry>
        </mxCell>
        <mxCell id="Kp7O1pfPNa1nEwttcqdK-2" style="edgeStyle=orthogonalEdgeStyle;rounded=0;html=1;labelBackgroundColor=none;startArrow=none;startFill=0;startSize=5;endArrow=classicThin;endFill=1;endSize=5;jettySize=auto;orthogonalLoop=1;strokeWidth=1;fontFamily=Verdana;fontSize=8" edge="1" parent="Kp7O1pfPNa1nEwttcqdK-1" source="Kp7O1pfPNa1nEwttcqdK-6" target="Kp7O1pfPNa1nEwttcqdK-11">
          <mxGeometry relative="1" as="geometry" />
        </mxCell>
        <mxCell id="Kp7O1pfPNa1nEwttcqdK-3" value="Cliente" style="swimlane;html=1;startSize=20;horizontal=0;" vertex="1" parent="Kp7O1pfPNa1nEwttcqdK-1">
          <mxGeometry y="20" width="1400" height="150" as="geometry" />
        </mxCell>
        <mxCell id="Kp7O1pfPNa1nEwttcqdK-4" style="edgeStyle=orthogonalEdgeStyle;rounded=0;html=1;labelBackgroundColor=none;startArrow=none;startFill=0;startSize=5;endArrow=classicThin;endFill=1;endSize=5;jettySize=auto;orthogonalLoop=1;strokeWidth=1;fontFamily=Verdana;fontSize=8" edge="1" parent="Kp7O1pfPNa1nEwttcqdK-3" source="Kp7O1pfPNa1nEwttcqdK-5" target="Kp7O1pfPNa1nEwttcqdK-6">
          <mxGeometry relative="1" as="geometry" />
        </mxCell>
        <mxCell id="Kp7O1pfPNa1nEwttcqdK-5" value="" style="ellipse;whiteSpace=wrap;html=1;rounded=0;shadow=0;labelBackgroundColor=none;strokeWidth=1;fontFamily=Verdana;fontSize=8;align=center;fillColor=#d5e8d4;strokeColor=#82b366;" vertex="1" parent="Kp7O1pfPNa1nEwttcqdK-3">
          <mxGeometry x="30" y="60" width="30" height="30" as="geometry" />
        </mxCell>
        <mxCell id="Kp7O1pfPNa1nEwttcqdK-6" value="Solicita serviço de problema" style="rounded=1;whiteSpace=wrap;html=1;shadow=0;labelBackgroundColor=none;strokeWidth=1;fontFamily=Verdana;fontSize=8;align=center;" vertex="1" parent="Kp7O1pfPNa1nEwttcqdK-3">
          <mxGeometry x="90" y="56.49999999999997" width="70" height="37" as="geometry" />
        </mxCell>
        <mxCell id="Kp7O1pfPNa1nEwttcqdK-7" style="edgeStyle=orthogonalEdgeStyle;rounded=0;orthogonalLoop=1;jettySize=auto;html=1;entryX=0;entryY=0.5;entryDx=0;entryDy=0;" edge="1" parent="Kp7O1pfPNa1nEwttcqdK-3" source="Kp7O1pfPNa1nEwttcqdK-8" target="Kp7O1pfPNa1nEwttcqdK-9">
          <mxGeometry relative="1" as="geometry" />
        </mxCell>
        <mxCell id="Kp7O1pfPNa1nEwttcqdK-8" value="Contatar usuário" style="rounded=1;whiteSpace=wrap;html=1;shadow=0;labelBackgroundColor=none;strokeWidth=1;fontFamily=Verdana;fontSize=8;align=center;" vertex="1" parent="Kp7O1pfPNa1nEwttcqdK-3">
          <mxGeometry x="760" y="59.99999999999994" width="70" height="37" as="geometry" />
        </mxCell>
        <mxCell id="Kp7O1pfPNa1nEwttcqdK-9" value="" style="ellipse;whiteSpace=wrap;html=1;rounded=0;shadow=0;labelBackgroundColor=none;strokeWidth=1;fontFamily=Verdana;fontSize=8;align=center;fillColor=#f8cecc;strokeColor=#b85450;" vertex="1" parent="Kp7O1pfPNa1nEwttcqdK-3">
          <mxGeometry x="1071" y="63.5" width="30" height="30" as="geometry" />
        </mxCell>
        <mxCell id="Kp7O1pfPNa1nEwttcqdK-10" value="N1" style="swimlane;html=1;startSize=20;horizontal=0;" vertex="1" parent="Kp7O1pfPNa1nEwttcqdK-1">
          <mxGeometry y="170" width="1400" height="150" as="geometry" />
        </mxCell>
        <mxCell id="Kp7O1pfPNa1nEwttcqdK-70" style="edgeStyle=orthogonalEdgeStyle;rounded=0;orthogonalLoop=1;jettySize=auto;html=1;entryX=0.5;entryY=0;entryDx=0;entryDy=0;" edge="1" parent="Kp7O1pfPNa1nEwttcqdK-10" source="Kp7O1pfPNa1nEwttcqdK-11" target="Kp7O1pfPNa1nEwttcqdK-69">
          <mxGeometry relative="1" as="geometry" />
        </mxCell>
        <mxCell id="Kp7O1pfPNa1nEwttcqdK-11" value="Atende e registra a ocorrência" style="rounded=1;whiteSpace=wrap;html=1;shadow=0;labelBackgroundColor=none;strokeWidth=1;fontFamily=Verdana;fontSize=8;align=center;" vertex="1" parent="Kp7O1pfPNa1nEwttcqdK-10">
          <mxGeometry x="82.5" y="8.629999999999995" width="85" height="39.75" as="geometry" />
        </mxCell>
        <mxCell id="Kp7O1pfPNa1nEwttcqdK-12" style="edgeStyle=orthogonalEdgeStyle;rounded=0;orthogonalLoop=1;jettySize=auto;html=1;entryX=0;entryY=0.5;entryDx=0;entryDy=0;" edge="1" parent="Kp7O1pfPNa1nEwttcqdK-10" source="Kp7O1pfPNa1nEwttcqdK-14" target="Kp7O1pfPNa1nEwttcqdK-21">
          <mxGeometry relative="1" as="geometry" />
        </mxCell>
        <mxCell id="Kp7O1pfPNa1nEwttcqdK-13" value="Não" style="edgeLabel;html=1;align=center;verticalAlign=middle;resizable=0;points=[];" vertex="1" connectable="0" parent="Kp7O1pfPNa1nEwttcqdK-12">
          <mxGeometry x="-0.4544" y="-2" relative="1" as="geometry">
            <mxPoint as="offset" />
          </mxGeometry>
        </mxCell>
        <mxCell id="Kp7O1pfPNa1nEwttcqdK-14" value="&lt;font style=&quot;font-size: 8px;&quot;&gt;Resolveu?&lt;/font&gt;" style="rhombus;whiteSpace=wrap;html=1;" vertex="1" parent="Kp7O1pfPNa1nEwttcqdK-10">
          <mxGeometry x="355" y="80" width="60" height="57.5" as="geometry" />
        </mxCell>
        <mxCell id="Kp7O1pfPNa1nEwttcqdK-15" value="Registrar ocorrência" style="rounded=1;whiteSpace=wrap;html=1;shadow=0;labelBackgroundColor=none;strokeWidth=1;fontFamily=Verdana;fontSize=8;align=center;" vertex="1" parent="Kp7O1pfPNa1nEwttcqdK-10">
          <mxGeometry x="350" y="9.999999999999943" width="70" height="37" as="geometry" />
        </mxCell>
        <mxCell id="Kp7O1pfPNa1nEwttcqdK-16" style="edgeStyle=orthogonalEdgeStyle;rounded=0;orthogonalLoop=1;jettySize=auto;html=1;" edge="1" parent="Kp7O1pfPNa1nEwttcqdK-10" source="Kp7O1pfPNa1nEwttcqdK-14" target="Kp7O1pfPNa1nEwttcqdK-15">
          <mxGeometry relative="1" as="geometry">
            <mxPoint x="255" y="30" as="targetPoint" />
          </mxGeometry>
        </mxCell>
        <mxCell id="Kp7O1pfPNa1nEwttcqdK-17" value="Sim" style="edgeLabel;html=1;align=center;verticalAlign=middle;resizable=0;points=[];" vertex="1" connectable="0" parent="Kp7O1pfPNa1nEwttcqdK-16">
          <mxGeometry x="-0.3959" relative="1" as="geometry">
            <mxPoint as="offset" />
          </mxGeometry>
        </mxCell>
        <mxCell id="Kp7O1pfPNa1nEwttcqdK-18" style="edgeStyle=orthogonalEdgeStyle;rounded=0;orthogonalLoop=1;jettySize=auto;html=1;entryX=0;entryY=0.5;entryDx=0;entryDy=0;" edge="1" parent="Kp7O1pfPNa1nEwttcqdK-10" source="Kp7O1pfPNa1nEwttcqdK-19" target="Kp7O1pfPNa1nEwttcqdK-14">
          <mxGeometry relative="1" as="geometry" />
        </mxCell>
        <mxCell id="Kp7O1pfPNa1nEwttcqdK-19" value="&lt;font style=&quot;font-size: 8px;&quot;&gt;Consultar base de dados&lt;/font&gt;" style="shape=cylinder3;whiteSpace=wrap;html=1;boundedLbl=1;backgroundOutline=1;size=15;" vertex="1" parent="Kp7O1pfPNa1nEwttcqdK-10">
          <mxGeometry x="220" y="10" width="50" height="69.75" as="geometry" />
        </mxCell>
        <mxCell id="Kp7O1pfPNa1nEwttcqdK-21" value="Enviar para o N2" style="rounded=1;whiteSpace=wrap;html=1;shadow=0;labelBackgroundColor=none;strokeWidth=1;fontFamily=Verdana;fontSize=8;align=center;" vertex="1" parent="Kp7O1pfPNa1nEwttcqdK-10">
          <mxGeometry x="470" y="90.24999999999994" width="70" height="37" as="geometry" />
        </mxCell>
        <mxCell id="Kp7O1pfPNa1nEwttcqdK-73" style="edgeStyle=orthogonalEdgeStyle;rounded=0;orthogonalLoop=1;jettySize=auto;html=1;entryX=0;entryY=0.5;entryDx=0;entryDy=0;" edge="1" parent="Kp7O1pfPNa1nEwttcqdK-10" source="Kp7O1pfPNa1nEwttcqdK-69" target="Kp7O1pfPNa1nEwttcqdK-72">
          <mxGeometry relative="1" as="geometry" />
        </mxCell>
        <mxCell id="Kp7O1pfPNa1nEwttcqdK-69" value="Classificação do problema" style="rounded=1;whiteSpace=wrap;html=1;shadow=0;labelBackgroundColor=none;strokeWidth=1;fontFamily=Verdana;fontSize=8;align=center;" vertex="1" parent="Kp7O1pfPNa1nEwttcqdK-10">
          <mxGeometry x="82.5" y="97.75" width="85" height="39.75" as="geometry" />
        </mxCell>
        <mxCell id="Kp7O1pfPNa1nEwttcqdK-74" style="edgeStyle=orthogonalEdgeStyle;rounded=0;orthogonalLoop=1;jettySize=auto;html=1;" edge="1" parent="Kp7O1pfPNa1nEwttcqdK-10" source="Kp7O1pfPNa1nEwttcqdK-72" target="Kp7O1pfPNa1nEwttcqdK-19">
          <mxGeometry relative="1" as="geometry" />
        </mxCell>
        <mxCell id="Kp7O1pfPNa1nEwttcqdK-72" value="Priorização do problema" style="rounded=1;whiteSpace=wrap;html=1;shadow=0;labelBackgroundColor=none;strokeWidth=1;fontFamily=Verdana;fontSize=8;align=center;" vertex="1" parent="Kp7O1pfPNa1nEwttcqdK-10">
          <mxGeometry x="202.5" y="97.75" width="85" height="39.75" as="geometry" />
        </mxCell>
        <mxCell id="Kp7O1pfPNa1nEwttcqdK-22" style="edgeStyle=orthogonalEdgeStyle;rounded=0;orthogonalLoop=1;jettySize=auto;html=1;" edge="1" parent="Kp7O1pfPNa1nEwttcqdK-1" source="Kp7O1pfPNa1nEwttcqdK-21" target="Kp7O1pfPNa1nEwttcqdK-28">
          <mxGeometry relative="1" as="geometry" />
        </mxCell>
        <mxCell id="Kp7O1pfPNa1nEwttcqdK-23" style="edgeStyle=orthogonalEdgeStyle;rounded=0;orthogonalLoop=1;jettySize=auto;html=1;entryX=1;entryY=0.5;entryDx=0;entryDy=0;" edge="1" parent="Kp7O1pfPNa1nEwttcqdK-1" source="Kp7O1pfPNa1nEwttcqdK-31" target="Kp7O1pfPNa1nEwttcqdK-15">
          <mxGeometry relative="1" as="geometry">
            <Array as="points">
              <mxPoint x="760" y="198" />
            </Array>
          </mxGeometry>
        </mxCell>
        <mxCell id="Kp7O1pfPNa1nEwttcqdK-24" value="Sim" style="edgeLabel;html=1;align=center;verticalAlign=middle;resizable=0;points=[];" vertex="1" connectable="0" parent="Kp7O1pfPNa1nEwttcqdK-23">
          <mxGeometry x="-0.9042" y="1" relative="1" as="geometry">
            <mxPoint as="offset" />
          </mxGeometry>
        </mxCell>
        <mxCell id="Kp7O1pfPNa1nEwttcqdK-25" style="edgeStyle=orthogonalEdgeStyle;rounded=0;orthogonalLoop=1;jettySize=auto;html=1;entryX=0;entryY=0.5;entryDx=0;entryDy=0;" edge="1" parent="Kp7O1pfPNa1nEwttcqdK-1" source="Kp7O1pfPNa1nEwttcqdK-15" target="Kp7O1pfPNa1nEwttcqdK-8">
          <mxGeometry relative="1" as="geometry">
            <Array as="points">
              <mxPoint x="385" y="99" />
              <mxPoint x="635" y="99" />
            </Array>
          </mxGeometry>
        </mxCell>
        <mxCell id="Kp7O1pfPNa1nEwttcqdK-26" value="N2" style="swimlane;html=1;startSize=20;horizontal=0;" vertex="1" parent="Kp7O1pfPNa1nEwttcqdK-1">
          <mxGeometry y="320" width="1400" height="150" as="geometry" />
        </mxCell>
        <mxCell id="Kp7O1pfPNa1nEwttcqdK-79" style="edgeStyle=orthogonalEdgeStyle;rounded=0;orthogonalLoop=1;jettySize=auto;html=1;" edge="1" parent="Kp7O1pfPNa1nEwttcqdK-26" source="Kp7O1pfPNa1nEwttcqdK-28" target="Kp7O1pfPNa1nEwttcqdK-75">
          <mxGeometry relative="1" as="geometry" />
        </mxCell>
        <mxCell id="Kp7O1pfPNa1nEwttcqdK-28" value="Recebe o Incidente" style="rounded=1;whiteSpace=wrap;html=1;shadow=0;labelBackgroundColor=none;strokeWidth=1;fontFamily=Verdana;fontSize=8;align=center;" vertex="1" parent="Kp7O1pfPNa1nEwttcqdK-26">
          <mxGeometry x="470" y="21.749999999999943" width="70" height="37" as="geometry" />
        </mxCell>
        <mxCell id="Kp7O1pfPNa1nEwttcqdK-29" style="edgeStyle=orthogonalEdgeStyle;rounded=0;orthogonalLoop=1;jettySize=auto;html=1;" edge="1" parent="Kp7O1pfPNa1nEwttcqdK-26" source="Kp7O1pfPNa1nEwttcqdK-31" target="Kp7O1pfPNa1nEwttcqdK-32">
          <mxGeometry relative="1" as="geometry" />
        </mxCell>
        <mxCell id="Kp7O1pfPNa1nEwttcqdK-30" value="Não" style="edgeLabel;html=1;align=center;verticalAlign=middle;resizable=0;points=[];" vertex="1" connectable="0" parent="Kp7O1pfPNa1nEwttcqdK-29">
          <mxGeometry x="-0.1781" y="-2" relative="1" as="geometry">
            <mxPoint as="offset" />
          </mxGeometry>
        </mxCell>
        <mxCell id="Kp7O1pfPNa1nEwttcqdK-31" value="&lt;font style=&quot;font-size: 8px;&quot;&gt;Resolveu?&lt;/font&gt;" style="rhombus;whiteSpace=wrap;html=1;" vertex="1" parent="Kp7O1pfPNa1nEwttcqdK-26">
          <mxGeometry x="730" y="37.5" width="60" height="57.5" as="geometry" />
        </mxCell>
        <mxCell id="Kp7O1pfPNa1nEwttcqdK-32" value="Enviar para o N3" style="rounded=1;whiteSpace=wrap;html=1;shadow=0;labelBackgroundColor=none;strokeWidth=1;fontFamily=Verdana;fontSize=8;align=center;" vertex="1" parent="Kp7O1pfPNa1nEwttcqdK-26">
          <mxGeometry x="840" y="47.74999999999994" width="70" height="37" as="geometry" />
        </mxCell>
        <mxCell id="Kp7O1pfPNa1nEwttcqdK-33" style="edgeStyle=orthogonalEdgeStyle;rounded=0;orthogonalLoop=1;jettySize=auto;html=1;entryX=0;entryY=0.5;entryDx=0;entryDy=0;" edge="1" parent="Kp7O1pfPNa1nEwttcqdK-26" source="Kp7O1pfPNa1nEwttcqdK-34" target="Kp7O1pfPNa1nEwttcqdK-31">
          <mxGeometry relative="1" as="geometry" />
        </mxCell>
        <mxCell id="Kp7O1pfPNa1nEwttcqdK-34" value="Tenta resolver" style="rounded=1;whiteSpace=wrap;html=1;shadow=0;labelBackgroundColor=none;strokeWidth=1;fontFamily=Verdana;fontSize=8;align=center;" vertex="1" parent="Kp7O1pfPNa1nEwttcqdK-26">
          <mxGeometry x="630" y="47.74999999999994" width="70" height="37" as="geometry" />
        </mxCell>
        <mxCell id="Kp7O1pfPNa1nEwttcqdK-80" style="edgeStyle=orthogonalEdgeStyle;rounded=0;orthogonalLoop=1;jettySize=auto;html=1;" edge="1" parent="Kp7O1pfPNa1nEwttcqdK-26" source="Kp7O1pfPNa1nEwttcqdK-75" target="Kp7O1pfPNa1nEwttcqdK-76">
          <mxGeometry relative="1" as="geometry" />
        </mxCell>
        <mxCell id="Kp7O1pfPNa1nEwttcqdK-75" value="Atende e registra a ocorrência" style="rounded=1;whiteSpace=wrap;html=1;shadow=0;labelBackgroundColor=none;strokeWidth=1;fontFamily=Verdana;fontSize=8;align=center;" vertex="1" parent="Kp7O1pfPNa1nEwttcqdK-26">
          <mxGeometry x="80" y="20" width="85" height="39.75" as="geometry" />
        </mxCell>
        <mxCell id="Kp7O1pfPNa1nEwttcqdK-82" style="edgeStyle=orthogonalEdgeStyle;rounded=0;orthogonalLoop=1;jettySize=auto;html=1;entryX=0;entryY=0.5;entryDx=0;entryDy=0;" edge="1" parent="Kp7O1pfPNa1nEwttcqdK-26" source="Kp7O1pfPNa1nEwttcqdK-76" target="Kp7O1pfPNa1nEwttcqdK-81">
          <mxGeometry relative="1" as="geometry" />
        </mxCell>
        <mxCell id="Kp7O1pfPNa1nEwttcqdK-76" value="Classificação do problema" style="rounded=1;whiteSpace=wrap;html=1;shadow=0;labelBackgroundColor=none;strokeWidth=1;fontFamily=Verdana;fontSize=8;align=center;" vertex="1" parent="Kp7O1pfPNa1nEwttcqdK-26">
          <mxGeometry x="80" y="95" width="85" height="39.75" as="geometry" />
        </mxCell>
        <mxCell id="Kp7O1pfPNa1nEwttcqdK-83" style="edgeStyle=orthogonalEdgeStyle;rounded=0;orthogonalLoop=1;jettySize=auto;html=1;entryX=0.5;entryY=1;entryDx=0;entryDy=0;" edge="1" parent="Kp7O1pfPNa1nEwttcqdK-26" source="Kp7O1pfPNa1nEwttcqdK-81" target="Kp7O1pfPNa1nEwttcqdK-34">
          <mxGeometry relative="1" as="geometry">
            <Array as="points">
              <mxPoint x="665" y="115" />
            </Array>
          </mxGeometry>
        </mxCell>
        <mxCell id="Kp7O1pfPNa1nEwttcqdK-81" value="Priorização do problema" style="rounded=1;whiteSpace=wrap;html=1;shadow=0;labelBackgroundColor=none;strokeWidth=1;fontFamily=Verdana;fontSize=8;align=center;" vertex="1" parent="Kp7O1pfPNa1nEwttcqdK-26">
          <mxGeometry x="462.5" y="95" width="85" height="39.75" as="geometry" />
        </mxCell>
        <mxCell id="Kp7O1pfPNa1nEwttcqdK-35" value="N3" style="swimlane;html=1;startSize=20;horizontal=0;" vertex="1" parent="1">
          <mxGeometry x="170" y="600" width="1400" height="150" as="geometry" />
        </mxCell>
        <mxCell id="Kp7O1pfPNa1nEwttcqdK-36" style="edgeStyle=orthogonalEdgeStyle;rounded=0;orthogonalLoop=1;jettySize=auto;html=1;" edge="1" parent="Kp7O1pfPNa1nEwttcqdK-35" source="Kp7O1pfPNa1nEwttcqdK-37" target="Kp7O1pfPNa1nEwttcqdK-42">
          <mxGeometry relative="1" as="geometry" />
        </mxCell>
        <mxCell id="Kp7O1pfPNa1nEwttcqdK-85" style="edgeStyle=orthogonalEdgeStyle;rounded=0;orthogonalLoop=1;jettySize=auto;html=1;entryX=1;entryY=0.5;entryDx=0;entryDy=0;" edge="1" parent="Kp7O1pfPNa1nEwttcqdK-35" source="Kp7O1pfPNa1nEwttcqdK-37" target="Kp7O1pfPNa1nEwttcqdK-77">
          <mxGeometry relative="1" as="geometry" />
        </mxCell>
        <mxCell id="Kp7O1pfPNa1nEwttcqdK-37" value="Recebe o incidente" style="rounded=1;whiteSpace=wrap;html=1;shadow=0;labelBackgroundColor=none;strokeWidth=1;fontFamily=Verdana;fontSize=8;align=center;" vertex="1" parent="Kp7O1pfPNa1nEwttcqdK-35">
          <mxGeometry x="840" y="30.25" width="70" height="37" as="geometry" />
        </mxCell>
        <mxCell id="Kp7O1pfPNa1nEwttcqdK-48" style="edgeStyle=orthogonalEdgeStyle;rounded=0;orthogonalLoop=1;jettySize=auto;html=1;entryX=1;entryY=0.5;entryDx=0;entryDy=0;" edge="1" parent="Kp7O1pfPNa1nEwttcqdK-35" source="Kp7O1pfPNa1nEwttcqdK-40" target="Kp7O1pfPNa1nEwttcqdK-46">
          <mxGeometry relative="1" as="geometry">
            <Array as="points">
              <mxPoint x="1170" y="114" />
              <mxPoint x="1140" y="114" />
            </Array>
          </mxGeometry>
        </mxCell>
        <mxCell id="Kp7O1pfPNa1nEwttcqdK-50" value="Não" style="edgeLabel;html=1;align=center;verticalAlign=middle;resizable=0;points=[];" vertex="1" connectable="0" parent="Kp7O1pfPNa1nEwttcqdK-48">
          <mxGeometry x="-0.109" y="1" relative="1" as="geometry">
            <mxPoint as="offset" />
          </mxGeometry>
        </mxCell>
        <mxCell id="Kp7O1pfPNa1nEwttcqdK-40" value="&lt;font style=&quot;font-size: 8px;&quot;&gt;Resolveu?&lt;/font&gt;" style="rhombus;whiteSpace=wrap;html=1;" vertex="1" parent="Kp7O1pfPNa1nEwttcqdK-35">
          <mxGeometry x="1140" y="20" width="60" height="57.5" as="geometry" />
        </mxCell>
        <mxCell id="Kp7O1pfPNa1nEwttcqdK-41" style="edgeStyle=orthogonalEdgeStyle;rounded=0;orthogonalLoop=1;jettySize=auto;html=1;" edge="1" parent="Kp7O1pfPNa1nEwttcqdK-35" source="Kp7O1pfPNa1nEwttcqdK-42" target="Kp7O1pfPNa1nEwttcqdK-40">
          <mxGeometry relative="1" as="geometry" />
        </mxCell>
        <mxCell id="Kp7O1pfPNa1nEwttcqdK-42" value="Tenta resolver" style="rounded=1;whiteSpace=wrap;html=1;shadow=0;labelBackgroundColor=none;strokeWidth=1;fontFamily=Verdana;fontSize=8;align=center;" vertex="1" parent="Kp7O1pfPNa1nEwttcqdK-35">
          <mxGeometry x="980" y="30.25" width="70" height="37" as="geometry" />
        </mxCell>
        <mxCell id="Kp7O1pfPNa1nEwttcqdK-59" style="edgeStyle=orthogonalEdgeStyle;rounded=0;orthogonalLoop=1;jettySize=auto;html=1;entryX=1;entryY=0.5;entryDx=0;entryDy=0;" edge="1" parent="Kp7O1pfPNa1nEwttcqdK-35" source="Kp7O1pfPNa1nEwttcqdK-46" target="Kp7O1pfPNa1nEwttcqdK-57">
          <mxGeometry relative="1" as="geometry" />
        </mxCell>
        <mxCell id="Kp7O1pfPNa1nEwttcqdK-46" value="Voltar última versão" style="rounded=1;whiteSpace=wrap;html=1;shadow=0;labelBackgroundColor=none;strokeWidth=1;fontFamily=Verdana;fontSize=8;align=center;" vertex="1" parent="Kp7O1pfPNa1nEwttcqdK-35">
          <mxGeometry x="1070" y="95.97" width="70" height="37" as="geometry" />
        </mxCell>
        <mxCell id="Kp7O1pfPNa1nEwttcqdK-62" style="edgeStyle=orthogonalEdgeStyle;rounded=0;orthogonalLoop=1;jettySize=auto;html=1;entryX=0.5;entryY=1;entryDx=0;entryDy=0;" edge="1" parent="Kp7O1pfPNa1nEwttcqdK-35" source="Kp7O1pfPNa1nEwttcqdK-57" target="Kp7O1pfPNa1nEwttcqdK-42">
          <mxGeometry relative="1" as="geometry" />
        </mxCell>
        <mxCell id="Kp7O1pfPNa1nEwttcqdK-57" value="Investigar causa raiz" style="rounded=1;whiteSpace=wrap;html=1;shadow=0;labelBackgroundColor=none;strokeWidth=1;fontFamily=Verdana;fontSize=8;align=center;" vertex="1" parent="Kp7O1pfPNa1nEwttcqdK-35">
          <mxGeometry x="980" y="95.97000000000003" width="70" height="37" as="geometry" />
        </mxCell>
        <mxCell id="Kp7O1pfPNa1nEwttcqdK-86" style="edgeStyle=orthogonalEdgeStyle;rounded=0;orthogonalLoop=1;jettySize=auto;html=1;entryX=0.5;entryY=0;entryDx=0;entryDy=0;" edge="1" parent="Kp7O1pfPNa1nEwttcqdK-35" source="Kp7O1pfPNa1nEwttcqdK-77" target="Kp7O1pfPNa1nEwttcqdK-78">
          <mxGeometry relative="1" as="geometry" />
        </mxCell>
        <mxCell id="Kp7O1pfPNa1nEwttcqdK-77" value="Atende e registra a ocorrência" style="rounded=1;whiteSpace=wrap;html=1;shadow=0;labelBackgroundColor=none;strokeWidth=1;fontFamily=Verdana;fontSize=8;align=center;" vertex="1" parent="Kp7O1pfPNa1nEwttcqdK-35">
          <mxGeometry x="80" y="29.25" width="85" height="39.75" as="geometry" />
        </mxCell>
        <mxCell id="Kp7O1pfPNa1nEwttcqdK-87" style="edgeStyle=orthogonalEdgeStyle;rounded=0;orthogonalLoop=1;jettySize=auto;html=1;" edge="1" parent="Kp7O1pfPNa1nEwttcqdK-35" source="Kp7O1pfPNa1nEwttcqdK-78" target="Kp7O1pfPNa1nEwttcqdK-84">
          <mxGeometry relative="1" as="geometry" />
        </mxCell>
        <mxCell id="Kp7O1pfPNa1nEwttcqdK-78" value="Classificação do problema" style="rounded=1;whiteSpace=wrap;html=1;shadow=0;labelBackgroundColor=none;strokeWidth=1;fontFamily=Verdana;fontSize=8;align=center;" vertex="1" parent="Kp7O1pfPNa1nEwttcqdK-35">
          <mxGeometry x="80" y="95" width="85" height="39.75" as="geometry" />
        </mxCell>
        <mxCell id="Kp7O1pfPNa1nEwttcqdK-88" style="edgeStyle=orthogonalEdgeStyle;rounded=0;orthogonalLoop=1;jettySize=auto;html=1;entryX=0.5;entryY=1;entryDx=0;entryDy=0;" edge="1" parent="Kp7O1pfPNa1nEwttcqdK-35" source="Kp7O1pfPNa1nEwttcqdK-84" target="Kp7O1pfPNa1nEwttcqdK-37">
          <mxGeometry relative="1" as="geometry" />
        </mxCell>
        <mxCell id="Kp7O1pfPNa1nEwttcqdK-84" value="Priorização do problema" style="rounded=1;whiteSpace=wrap;html=1;shadow=0;labelBackgroundColor=none;strokeWidth=1;fontFamily=Verdana;fontSize=8;align=center;" vertex="1" parent="Kp7O1pfPNa1nEwttcqdK-35">
          <mxGeometry x="670" y="95.97000000000003" width="85" height="39.75" as="geometry" />
        </mxCell>
        <mxCell id="Kp7O1pfPNa1nEwttcqdK-43" style="edgeStyle=orthogonalEdgeStyle;rounded=0;orthogonalLoop=1;jettySize=auto;html=1;entryX=0.5;entryY=0;entryDx=0;entryDy=0;" edge="1" parent="1" source="Kp7O1pfPNa1nEwttcqdK-32" target="Kp7O1pfPNa1nEwttcqdK-37">
          <mxGeometry relative="1" as="geometry">
            <Array as="points" />
          </mxGeometry>
        </mxCell>
        <mxCell id="Kp7O1pfPNa1nEwttcqdK-63" style="edgeStyle=orthogonalEdgeStyle;rounded=0;orthogonalLoop=1;jettySize=auto;html=1;entryX=1;entryY=0.5;entryDx=0;entryDy=0;" edge="1" parent="1" source="Kp7O1pfPNa1nEwttcqdK-40" target="Kp7O1pfPNa1nEwttcqdK-15">
          <mxGeometry relative="1" as="geometry">
            <Array as="points">
              <mxPoint x="1340" y="328" />
            </Array>
          </mxGeometry>
        </mxCell>
        <mxCell id="Kp7O1pfPNa1nEwttcqdK-64" value="Sim" style="edgeLabel;html=1;align=center;verticalAlign=middle;resizable=0;points=[];" vertex="1" connectable="0" parent="Kp7O1pfPNa1nEwttcqdK-63">
          <mxGeometry x="-0.9763" relative="1" as="geometry">
            <mxPoint x="1" as="offset" />
          </mxGeometry>
        </mxCell>
      </root>
    </mxGraphModel>
  </diagram>
</mxfile>
